<svg width="300" height="547" viewBox="0 0 300 547" fill="none" xmlns="http://www.w3.org/2000/svg">
<path d="M54.5505 1.48664C50.3689 3.36978 46.7375 7.80067 45.197 13.1178C41.6757 24.8596 53.34 37.2661 65.5546 34.9399C70.2863 34.0537 76.4486 28.9582 78.3193 24.3058C80.19 19.7641 79.1997 10.9023 76.3386 6.91449C71.8269 0.600464 62.1433 -1.83653 54.5505 1.48664ZM66.765 7.02527C70.6165 8.68685 73.9177 13.5608 73.9177 17.6594C73.9177 21.3149 71.0566 25.9674 67.8654 27.4074C62.5835 29.8444 57.5216 29.069 54.0003 25.3027C48.3882 19.2102 50.2589 10.3484 57.8517 7.02527C62.1433 5.14213 62.2533 5.14213 66.765 7.02527Z" fill="#F2F3F7"/>
<path d="M112.925 1.89019C108.685 3.99115 105.096 8.74595 104.009 13.9431C101.399 25.4431 112.599 37.1642 124.125 34.9527C129.453 33.8469 136.303 27.4334 137.717 22.0152C141.632 7.5296 126.409 -4.855 112.925 1.89019ZM125.104 7.0873C132.824 10.4046 134.89 19.6931 129.127 25.5536C122.168 32.52 109.446 27.4334 109.446 17.7027C109.446 13.7219 112.708 8.74595 116.296 7.19787C120.646 5.20749 120.754 5.20749 125.104 7.0873Z" fill="#F2F3F7"/>
<path d="M170.805 2.50141C164.342 6.76211 161.78 11.6783 162.225 18.3425C163.005 27.4101 169.022 33.7466 177.713 34.6205C188.521 35.713 198.438 26.0991 197.324 15.6113C195.986 3.26615 180.944 -4.16277 170.805 2.50141ZM187.964 9.93032C192.31 14.5188 192.198 20.8552 187.741 25.2251C178.604 34.0743 163.34 23.2587 169.245 12.0061C172.922 5.01413 182.281 4.03089 187.964 9.93032Z" fill="#F2F3F7"/>
<path d="M229.455 2.41814C218.432 9.89233 217.771 23.7416 227.912 31.5455C235.407 37.1512 247.311 35.0628 253.043 27.1489C256.24 22.7523 256.24 12.4204 253.043 8.02378C249.185 2.74788 244.004 1.52588e-05 238.273 1.52588e-05C234.746 1.52588e-05 231.99 0.769417 229.455 2.41814ZM243.233 7.14447C250.398 10.5518 251.831 19.6747 246.099 25.3903C238.934 32.5347 227.25 27.5886 227.25 17.3665C227.36 11.9807 228.793 9.56259 233.423 7.14447C237.391 5.05609 238.714 5.05609 243.233 7.14447Z" fill="#F2F3F7"/>
<path d="M52.9399 46.6935C47.4972 50.1962 43.7206 58.1869 44.7203 63.9883C46.9418 76.7952 63.3811 83.2533 73.1558 75.1533C79.8204 69.5708 81.7087 60.595 77.7099 52.9328C73.3779 44.3948 61.1596 41.3299 52.9399 46.6935ZM68.3795 51.8382C75.1552 55.8882 76.0438 63.3315 70.3789 68.914C66.2691 72.964 62.1593 73.7303 56.9387 71.3221C50.9406 68.6951 49.0523 59.8288 53.1621 54.6841C57.383 49.3206 62.6036 48.4449 68.3795 51.8382Z" fill="#F2F3F7"/>
<path d="M112.782 46.0863C102.205 51.4656 100.46 65.0786 109.292 73.8612C121.287 85.9372 142.113 73.7514 137.751 57.1743C134.807 46.0863 122.922 40.8167 112.782 46.0863ZM129.355 53.9906C136.116 61.5656 130.664 72.6536 120.196 72.6536C115.508 72.6536 109.401 66.5057 109.401 61.6753C109.401 57.0645 111.037 54.3199 115.18 51.6852C119.978 48.721 125.321 49.5993 129.355 53.9906Z" fill="#F2F3F7"/>
<path d="M171.252 46.2222C165.404 49.18 162.204 55.4242 162.756 62.5448C163.307 69.5558 165.845 73.3899 172.466 76.7859C181.072 81.2773 191.113 77.7718 195.637 68.6794C202.92 53.5619 186.369 38.2253 171.252 46.2222ZM185.596 51.4805C189.899 54.4383 191.003 56.4101 191.113 61.3397C191.113 67.803 187.693 71.5276 181.072 72.2945C176.879 72.7327 175.555 72.404 172.576 69.8844C170.479 68.2412 168.824 65.5025 168.383 63.4211C166.618 54.0001 177.872 46.2222 185.596 51.4805Z" fill="#F2F3F7"/>
<path d="M231.007 45.0212C229.792 45.4614 227.253 47.6628 225.266 49.8642C219.194 56.7985 219.194 66.3746 225.376 72.9787C236.638 84.8661 255.959 77.1613 255.959 60.651C255.959 52.0656 247.347 43.9205 238.404 44.0305C235.644 44.0305 232.332 44.4708 231.007 45.0212ZM244.587 51.6253C248.672 54.0468 250.549 59.2201 249.224 64.2832C245.801 76.721 227.253 74.4096 227.253 61.5315C227.253 55.918 228.578 53.2763 232.553 51.185C236.638 48.8736 240.391 49.0937 244.587 51.6253Z" fill="#F2F3F7"/>
<path d="M53.2395 90.5227C47.1733 94.7044 45.0777 98.446 45.0777 105.159C45.0777 111.872 47.1733 115.613 53.2395 119.685C57.9821 122.986 66.585 123.096 71.7689 120.015C82.4674 113.412 82.4674 96.9053 71.7689 90.3026C66.585 87.2213 57.9821 87.3313 53.2395 90.5227ZM70.0042 96.7953C73.0924 99.5464 73.6439 100.757 73.6439 105.159C73.6439 109.561 73.0924 110.771 70.0042 113.522C58.8645 123.536 44.1954 107.91 54.7836 97.3455C59.7468 92.3934 64.9306 92.1733 70.0042 96.7953Z" fill="#F2F3F7"/>
<path d="M111.627 90.6055C100.887 97.7967 100.997 112.622 111.737 119.924C114.915 122.136 116.559 122.468 122.367 122.136C128.504 121.694 129.6 121.251 133.107 117.822C141.545 109.303 139.463 95.1415 129.161 89.7204C124.34 87.1758 115.901 87.6183 111.627 90.6055ZM128.723 97.3542C131.572 100.231 132.449 102.001 132.449 105.209C132.449 110.962 126.641 116.826 120.942 116.826C115.244 116.826 109.435 110.962 109.435 105.209C109.435 99.4562 115.244 93.5926 120.942 93.5926C124.12 93.5926 125.874 94.4777 128.723 97.3542Z" fill="#F2F3F7"/>
<path d="M170.037 90.3816C155.764 100.118 162.181 122.246 179.22 122.246C186.744 122.246 191.944 119.37 195.042 113.395C199.247 105.539 197.808 98.2371 191.059 91.8199C188.182 89.1645 186.523 88.5007 180.659 88.1688C174.905 87.8368 173.245 88.1688 170.037 90.3816ZM184.642 94.6966C188.736 96.7988 190.948 100.45 190.948 105.097C190.948 115.276 179.552 120.365 172.139 113.616C162.292 104.765 172.914 88.722 184.642 94.6966Z" fill="#F2F3F7"/>
<path d="M228.763 90.3588C224.799 92.8911 220.725 100.378 220.725 105.222C220.835 110.397 224.469 117.223 228.653 119.755C233.938 123.058 242.746 123.058 247.921 119.865C252.435 117.003 255.959 110.507 255.959 104.892C255.959 99.3869 251.885 92.6709 247.15 90.1386C241.975 87.2761 233.277 87.3862 228.763 90.3588ZM244.618 95.7536C250.674 99.3869 251.334 109.186 245.939 113.7C238.342 119.975 227.332 115.241 227.332 105.662C227.332 100.047 228.653 97.4051 232.617 95.3132C236.69 93.0012 240.434 93.2214 244.618 95.7536Z" fill="#F2F3F7"/>
<path d="M0.441014 281.273C0.771775 412.979 0.882029 416.285 3.0871 426.535C9.59206 456.293 21.72 479.438 41.7861 500.489C63.9471 523.854 92.2822 539.174 124.146 545.125C137.155 547.55 162.514 547.66 176.075 545.236C205.954 539.835 234.399 524.956 255.568 503.465C275.634 483.185 286.329 465.331 293.936 439.1C299.89 418.82 300 416.947 300 276.314V146.592H150.055H0L0.441014 281.273ZM293.936 153.425C294.267 154.197 294.377 186.6 294.267 225.395L293.936 295.932L289.857 285.461C281.698 264.741 270.673 248.54 253.473 231.897C232.084 211.177 205.072 197.4 175.854 192.331C154.245 188.583 123.153 190.898 103.087 197.731C60.6395 212.169 24.5865 246.776 10.0331 287.335C8.59978 291.193 7.38699 294.279 7.16648 294.279C6.94598 294.279 6.72547 262.316 6.72547 223.191V152.103H150.055C263.727 152.103 293.605 152.433 293.936 153.425ZM171.555 197.841C237.486 208.532 287.431 261.214 293.164 326.02L294.046 336.16H282.139H270.232V331.31C270.232 324.698 267.475 310.48 264.278 301.332C256.229 277.746 239.691 255.593 219.515 241.486C209.151 234.212 201.764 230.465 189.746 226.277C175.193 221.096 166.814 219.884 148.401 219.994C127.674 220.215 115.546 223.08 97.6847 231.897C83.2415 239.061 74.0904 245.784 62.9548 257.467C44.8732 276.534 34.0684 299.459 30.7607 325.91L29.548 336.16H17.9713H6.39471L7.16648 326.902C8.15876 315.329 12.1279 298.467 16.6483 287.004C35.9427 238.29 80.9261 203.793 134.068 196.96C142.337 195.857 162.514 196.298 171.555 197.841ZM171.665 227.709C220.287 236.306 258.875 278.298 264.168 328.665L264.939 336.16H253.252C246.858 336.16 241.566 335.719 241.566 335.168C241.566 334.727 240.794 329.878 239.912 324.587C234.84 295.822 216.979 271.464 191.621 259.01C174.862 250.744 165.27 248.65 146.748 249.421C129.879 249.973 121.83 252.067 108.159 259.12C81.6979 272.787 62.8445 300.34 59.9779 329.216L59.3164 336.16H47.5193H35.6119L36.1632 330.87C40.2426 286.012 69.2393 247.768 110.584 232.669C130.761 225.285 149.283 223.742 171.665 227.709ZM166.373 256.365C194.267 261.986 217.861 281.163 228.776 307.284C231.863 314.448 234.95 327.453 234.95 332.964V336.16H223.594H212.348L210.915 328.665C207.607 310.48 194.487 292.846 178.39 284.91C169.901 280.722 158.104 277.746 150.055 277.746C124.256 277.746 99.4487 296.152 91.731 320.73C90.5182 324.698 89.1951 329.767 88.8644 331.972L88.2029 336.16H76.6262H65.0496L65.8214 330.318C67.4752 315.991 71.8853 304.418 80.0441 292.074C98.4564 264.411 133.958 249.752 166.373 256.365ZM163.286 285.572C183.572 290.201 201.985 309.708 204.961 329.767L205.954 336.16H193.936C182.249 336.16 182.029 336.16 182.029 333.625C182.029 329.327 176.516 319.848 171.444 315.329C153.583 299.679 124.807 308.496 118.964 331.421L117.861 336.16H106.395C93.1643 336.16 93.3848 336.38 96.6924 325.028C103.859 300.671 125.028 284.469 149.504 284.469C154.355 284.359 160.529 284.91 163.286 285.572ZM161.852 316.211C168.357 319.518 174.421 326.792 175.854 333.074L176.516 336.16H150.496H124.476L125.138 332.743C128.115 317.534 147.519 308.827 161.852 316.211ZM59.6472 368.673V394.573H33.1863H6.72547V368.673V342.773H33.1863H59.6472V368.673ZM118.082 368.673V394.573H91.6207H65.1599V368.673V342.773H91.6207H118.082V368.673ZM176.516 368.673V394.573H150.055H123.594V368.673V342.773H150.055H176.516V368.673ZM234.95 368.673V394.573H209.041H183.131V368.673V342.773H209.041H234.95V368.673ZM294.487 368.673V394.573H268.026H241.566V368.673V342.773H268.026H294.487V368.673ZM137.817 401.627C136.384 402.839 26.7916 465.551 25.3583 465.882C23.2635 466.433 17.3098 454.089 13.0099 440.312C9.92282 430.283 6.72547 412.979 6.72547 405.925V401.186H72.5469C108.71 401.186 138.037 401.406 137.817 401.627ZM293.054 411.326C292.723 416.947 291.18 426.315 289.636 432.156C286.659 444.169 278.28 465.11 276.185 465.882C275.413 466.102 249.394 451.664 218.302 433.809L161.742 401.186H227.784H293.716L293.054 411.326ZM135.832 416.836C130.761 425.543 96.1411 485.279 82.4697 508.865C78.9416 515.147 75.7442 520.217 75.5237 520.217C75.1929 520.217 72.1058 518.343 68.688 515.919C60.6395 510.408 50.1654 501.15 42.4476 492.443C36.0529 485.279 27.1224 472.935 27.8942 472.274C28.8864 471.172 139.581 407.799 140.353 407.799C140.794 407.799 138.809 411.877 135.832 416.836ZM215.877 439.43C246.086 456.734 271.224 471.392 271.775 471.833C274.09 473.817 256.34 495.97 244.432 505.999C235.612 513.494 225.248 520.768 224.587 520.107C223.815 519.446 160.97 410.775 160.309 409.121C159.978 408.46 159.978 407.799 160.309 407.799C160.639 407.799 185.667 422.016 215.877 439.43ZM146.748 476.132V541.158H142.007C134.95 541.158 117.641 537.962 107.607 534.876C95.2591 531.018 81.5876 524.626 81.9184 522.862C82.2492 521.429 145.976 411.105 146.417 411.105C146.637 411.105 146.748 440.312 146.748 476.132ZM186.439 466.653C203.638 496.411 217.861 521.429 218.082 522.421C218.412 523.744 216.428 525.287 209.923 528.152C193.826 535.537 171.334 541.158 158.104 541.158H153.363V475.911C153.363 437.997 153.804 411.105 154.355 411.656C154.906 412.318 169.35 437.006 186.439 466.653Z" fill="#F2F3F7"/>
</svg>
