<svg width="60" height="60" viewBox="0 0 60 60" fill="none" xmlns="http://www.w3.org/2000/svg">
<rect width="60" height="60" rx="30" fill="#263069"/>
<path d="M32.7051 10.0316C31.9991 10.081 31.3047 10.1797 31.1658 10.2537C30.726 10.5128 30.8533 10.957 31.6172 11.8331C32.4273 12.7461 32.7745 13.4124 32.7745 14.0293C32.7745 14.2638 32.5431 15.3125 32.2653 16.349C31.594 18.8167 31.3857 20.0258 31.3857 21.4941C31.3857 22.7897 31.6288 24.0235 32.1148 25.2574L32.4042 25.9853L31.8255 26.6023C29.9738 28.6134 29.8927 31.476 31.6519 33.4254L32.3347 34.1904L31.8139 34.9184C31.1311 35.8561 30.8418 36.0535 30.1242 36.0535C29.4298 36.0535 28.909 35.6464 28.7354 34.9801C28.6428 34.6099 28.666 34.4249 28.8627 33.919C29.1521 33.2157 29.071 32.9319 28.5618 32.8702C28.122 32.8085 27.8211 33.1417 27.6128 33.919C27.4623 34.4742 27.4508 34.6963 27.5665 35.1899C27.8558 36.4731 29.0826 37.3738 30.3673 37.2504C31.3047 37.164 31.9181 36.7322 32.7398 35.634C33.2027 34.9924 33.4689 34.7333 33.6078 34.7703C35.1818 35.2515 36.9409 34.9431 38.0983 33.956L38.5496 33.5735L39.5681 34.3632C40.1236 34.8074 41.1189 35.5107 41.7786 35.9302C42.4267 36.3497 42.9591 36.6951 42.9591 36.7075C42.9591 36.7198 42.8434 37.09 42.7045 37.5342C42.5193 38.1511 42.4499 38.7804 42.392 40.2363L42.3226 42.1488L41.9175 42.2598C41.0611 42.4942 31.3278 44.9373 31.2468 44.9373C31.2005 44.9373 31.1542 44.1476 31.1542 43.1729C31.1542 41.9637 31.108 41.3591 31.0154 41.2604C30.7955 41.026 30.3904 41.0877 29.6729 41.4701C28.585 42.0624 26.6406 42.7287 25.8189 42.8027C24.7542 42.9014 24.2102 42.593 22.8677 41.174C21.7914 40.0265 21.3747 39.4096 21.5021 39.1135C21.5368 39.0271 21.8608 38.6816 22.2196 38.3485C24.2797 36.4731 25.5064 34.0424 25.3444 32.2039C25.2634 31.3773 24.7426 30.5259 24.0945 30.1681C23.7589 29.983 22.8793 29.7609 21.5946 29.5141C19.442 29.1193 18.7129 28.8849 18.6203 28.5394C18.5971 28.416 18.6897 27.9965 18.8402 27.6017C18.9906 27.2068 19.1179 26.7627 19.1179 26.6269C19.1179 26.4789 18.8518 26.0594 18.5277 25.6892C17.4051 24.3937 17.2315 23.8138 17.8333 23.3572C18.0069 23.2215 19.1179 22.6663 20.2869 22.1234C23.0529 20.8402 23.2496 20.6304 24.0945 18.1257C24.1871 17.8419 24.2565 17.7926 24.5227 17.8666C25.5412 18.101 26.1083 18.3355 26.7216 18.7796C27.5434 19.3596 27.7285 19.3842 27.9831 18.9647C28.1567 18.6809 28.1567 18.6316 27.9947 18.3725C27.6475 17.8049 25.8305 16.8055 25.1477 16.8055C24.6732 16.7931 24.6384 16.6081 24.9625 15.9541C25.7726 14.3748 27.254 12.9435 28.9669 12.1045C29.8349 11.6727 30.0316 11.3889 29.696 10.994C29.4067 10.6486 29.1405 10.6979 27.9716 11.3149C26.1546 12.2649 24.731 13.7702 23.7241 15.8184C23.4464 16.386 23.2496 16.6327 23.076 16.6574C22.8446 16.6944 22.4742 17.1016 22.4742 17.3237C22.4742 17.3854 22.5784 17.5335 22.7057 17.6692C22.9372 17.916 22.9372 17.916 22.6941 18.6192C22.3122 19.7174 21.7567 20.1986 19.9744 20.9759C16.9653 22.2838 16.3403 22.8143 16.3403 24.0112C16.3403 24.7021 16.6065 25.245 17.4398 26.1951L17.8912 26.7133L17.6365 27.466C17.3241 28.3913 17.3241 28.4407 17.625 29.107C17.9953 29.9337 18.7939 30.2545 21.4905 30.6863C23.2496 30.9701 23.7473 31.1798 24.0251 31.7844C24.2218 32.2163 24.2334 32.3643 24.1292 33.043C23.8862 34.5729 22.9719 36.0906 21.5136 37.4231C20.5762 38.2745 20.2174 38.9284 20.3216 39.57C20.4952 40.5077 22.6015 42.8891 23.863 43.5677C24.488 43.9008 24.7195 43.9502 25.4833 43.9502C26.5018 43.9502 27.7517 43.6417 28.9785 43.0865C29.4414 42.8891 29.858 42.7163 29.9043 42.7163C29.9622 42.7163 29.9969 43.2962 29.9969 44.0119C29.9969 45.2951 29.9969 45.3074 29.6729 45.4802C29.2215 45.7269 28.7354 46.2698 28.4692 46.8251C28.203 47.3926 28.0642 49.1447 28.2493 49.6506C28.4461 50.1935 28.3303 50.2058 33.2953 48.9473C34.5684 48.6265 35.7257 48.2933 35.8762 48.1946C36.1887 47.9725 36.2002 47.6394 35.8993 47.3433C35.6447 47.0965 36.1539 47.0101 31.6866 48.1453C30.6219 48.4167 29.6613 48.6388 29.5803 48.6388C29.4645 48.6388 29.4182 48.4661 29.4182 48.0466C29.4182 47.2939 29.777 46.714 30.4136 46.4179C30.7145 46.2822 41.9869 43.4566 42.2184 43.4566C42.3457 43.4566 42.3804 43.6787 42.3804 44.4437V45.4185L41.9522 45.5419C41.7092 45.6159 40.5981 45.8997 39.4871 46.1711C37.2418 46.7263 36.9178 46.9114 37.1493 47.4667C37.2418 47.6888 37.3691 47.7751 37.6006 47.7751C38.0983 47.7751 42.9822 46.5413 43.2831 46.3439C43.5378 46.1711 43.5378 46.1588 43.5378 42.667C43.5378 38.1634 43.6188 37.7686 45.0539 35.2392C45.6557 34.2028 45.6904 33.8943 45.2275 33.7216C44.8108 33.5488 44.5909 33.7216 44.0354 34.647C43.6419 35.3132 43.4452 35.5477 43.3179 35.4983C42.9707 35.3626 40.9337 33.956 40.1236 33.3021C39.4524 32.7715 39.325 32.5988 39.3482 32.352C39.3713 32.1793 39.3945 31.624 39.3945 31.1181C39.4176 30.0941 39.2209 29.5265 38.5496 28.7121C38.295 28.416 38.2256 28.2309 38.295 28.1199C38.3645 28.0459 38.8158 27.4166 39.3135 26.738C39.8111 26.0594 40.2278 25.4918 40.2509 25.4671C40.2625 25.4424 40.9916 25.3191 41.8712 25.1833C43.7576 24.9119 44.4289 24.7145 45.2275 24.2209C45.9103 23.8014 46.489 22.9624 46.6047 22.2221C46.7204 21.4941 46.3385 20.7168 45.6904 20.396C44.7298 19.8901 43.2716 20.1492 42.2647 21.0006C41.9406 21.2844 40.1005 23.604 39.6607 24.295C39.6491 24.3196 38.3992 24.517 36.8715 24.7515C35.3438 24.9859 33.9434 25.245 33.7698 25.3191C33.4689 25.4301 33.4458 25.4178 33.2259 24.8872C32.8208 23.9125 32.5431 22.4935 32.5431 21.4448C32.5546 20.0999 32.7514 18.9771 33.4111 16.6204C33.7235 15.5099 33.9666 14.3748 33.9781 14.0293C33.9897 13.3507 33.6888 12.5734 33.1101 11.7961C32.925 11.5493 32.7745 11.2902 32.7745 11.2161C32.7745 11.0434 36.1655 11.1915 37.508 11.4382C42.9707 12.413 46.8825 15.5346 48.2713 20.0135C48.8499 21.9136 49.0235 24.3813 48.6879 26.1211C48.3638 27.7497 47.6926 29.2304 46.3501 31.2292C46.0145 31.7351 45.7367 32.2409 45.7367 32.3643C45.7367 32.6358 46.0376 32.9689 46.2806 32.9689C46.9519 32.9689 49.2087 29.0206 49.7295 26.9231C49.9957 25.8373 50.0883 23.3202 49.9031 21.9877C49.0814 16.0035 44.8224 11.759 38.2603 10.3895C36.7442 10.0687 34.4527 9.93294 32.7051 10.0316ZM45.077 21.3584C45.4705 21.5188 45.5631 21.8889 45.3201 22.4318C44.9613 23.2215 44.0238 23.6904 42.2647 23.9495C41.7902 24.0112 41.3851 24.0482 41.362 24.0358C41.2925 23.9495 42.716 22.1357 43.0517 21.8766C43.8155 21.2967 44.4983 21.124 45.077 21.3584ZM38.5612 25.7386C38.5612 25.7632 38.2487 26.1951 37.8784 26.6886L37.1955 27.6017H36.2234C35.448 27.6017 35.1586 27.651 34.7073 27.8978C33.4111 28.5764 32.9828 30.1928 33.7698 31.4266L34.0476 31.8708L33.6194 32.4754C33.3763 32.8209 33.1217 33.0923 33.0407 33.0923C32.9597 33.0923 32.6935 32.8579 32.4389 32.5741C31.2468 31.2662 31.351 28.8108 32.6588 27.4166C33.3995 26.6269 34.117 26.3555 36.3044 26.01C38.5265 25.6769 38.5612 25.6769 38.5612 25.7386ZM35.5753 29.8226C34.8924 30.748 34.7883 30.8467 34.661 30.6616C34.3369 30.2051 34.6147 29.292 35.1818 28.9712C35.3554 28.8602 35.691 28.7862 35.9225 28.7738H36.3507L35.5753 29.8226ZM38.214 30.6246C38.5844 32.2533 37.2766 33.6846 35.3091 33.8079C33.9434 33.8943 33.8624 34.0917 36.4664 30.5876L37.4617 29.2427L37.7742 29.6375C37.9478 29.8596 38.1446 30.3038 38.214 30.6246Z" fill="white"/>
<path d="M23.8746 22.5059C23.6778 23.0488 24.0019 23.3819 24.9625 23.6534C26.1777 23.9865 27.3929 23.8508 27.8211 23.3326C28.203 22.8514 27.7169 22.2591 27.1267 22.4935C26.6985 22.6663 25.4023 22.6169 24.9393 22.4195C24.3375 22.1481 23.9903 22.1851 23.8746 22.5059Z" fill="white"/>
<path d="M13.6785 33.3391C13.4586 33.5735 13.447 33.7462 13.447 36.4114V39.2245L12.4749 39.2862C11.6416 39.3356 11.4101 39.3973 10.9472 39.7057C10.2412 40.1746 9.9403 40.7422 10.0097 41.5195C10.1602 43.3086 12.5906 43.7651 13.9331 42.2598C14.5349 41.5935 14.6044 41.1247 14.6044 37.8303C14.6044 36.1769 14.6507 34.8197 14.7085 34.8197C14.7664 34.8197 15.102 34.9677 15.4724 35.1405C16.2825 35.5353 16.6876 35.4366 16.6876 34.8197C16.6876 34.4742 16.6066 34.4125 15.4145 33.7709C14.7201 33.4008 14.0951 33.0923 14.0257 33.0923C13.9678 33.0923 13.8058 33.2033 13.6785 33.3391ZM13.4239 40.5448C13.5396 40.6681 13.1808 41.3714 12.8452 41.6676C12.4054 42.0624 11.6184 42.0994 11.306 41.7292C10.7736 41.1 11.6879 40.298 12.7989 40.4214C13.1114 40.4584 13.3892 40.5201 13.4239 40.5448Z" fill="white"/>
</svg>
